# xmcd
#
# Track frame offsets:
#	150
#	12157
#	28720
#	45690
#	59540
#	71725
#	91570
#	103607
#	113245
#	129100
#
# Disc length: 1868 seconds
#
# Revision: 0
# Processed by: cddbd v1.5.2PL0 Copyright (c) Steve Scherf et al.
# Submitted via: audiograbber 1.83.01
#
DISCID=7a074a0a
DTITLE=Linda Ronstadt - Different Drum
DYEAR=1974
DGENRE=CountryRock
TTITLE0=Different Drum [with the Stone Poneys]
TTITLE1=Rock Me On The Water
TTITLE2=I'll Be Your Baby Tonight
TTITLE3=Hobo [with the Stone Poneys]
TTITLE4=Stoney End [with the Stone Poneys]
TTITLE5=Long Long Time
TTITLE6=Up To My Neck In High Muddy Water [with the Stone Poneys]
TTITLE7=Some Of Shelly's Blues [with the Stone Poneys]
TTITLE8=In My Reply
TTITLE9=Will You Love Me Tomorrow
EXTD=
EXTT0=
EXTT1=
EXTT2=
EXTT3=
EXTT4=
EXTT5=
EXTT6=
EXTT7=
EXTT8=
EXTT9=
PLAYORDER=
